# xmcd CD database file
#
# Track frame offsets:
#	150
#	16805
#	28000
#	44695
#	63277
#	83722
#	105317
#	120262
#	136467
#	149622
#
# Disc length: 2190 seconds
#
# Revision: 1
# Processed by: cddbd v1.5.2PL0 Copyright (c) Steve Scherf et al.
# Submitted via: CDex 1.51
#
DISCID=7f088c0a
DTITLE=Don Nix - Hobos, Heroes And Street Corner Clowns
DYEAR=1974
DGENRE=Rock
TTITLE0=She's A Friend Of Mine
TTITLE1=The Train Don't Stop Here No More
TTITLE2=Black Cat Moan
TTITLE3=Rainy Night In Paris (Memphis Reject)
TTITLE4=When I Lay My Burden Down (Traditional) - Dedicated To Fred McDowell
TTITLE5=Sweet Sweet Surrender
TTITLE6=We Gotta Move (Keep On Rolling)
TTITLE7=Miss Eleana
TTITLE8=I Need You
TTITLE9=Look What The Years Have Done
EXTD=YEAR: 1974
EXTT0=
EXTT1=
EXTT2=
EXTT3=
EXTT4=
EXTT5=
EXTT6=
EXTT7=
EXTT8=
EXTT9=
PLAYORDER=
